<svg xmlns="http://www.w3.org/2000/svg" version="1.1" xmlns:xlink="http://www.w3.org/1999/xlink" xmlns:svgjs="http://svgjs.dev/svgjs" width="1500" height="344" viewBox="0 0 1500 344"><g transform="matrix(1,0,0,1,-0.9090909090909918,0.5763668981219325)"><svg viewBox="0 0 396 91" data-background-color="#293040" preserveAspectRatio="xMidYMid meet" height="344" width="1500" xmlns="http://www.w3.org/2000/svg" xmlns:xlink="http://www.w3.org/1999/xlink"><g id="tight-bounds" transform="matrix(1,0,0,1,0.2400000000000091,-0.15246915037528197)"><svg viewBox="0 0 395.52 91.30493830075059" height="91.30493830075059" width="395.52"><g><svg viewBox="0 0 533.4059937519824 123.13562234217059" height="91.30493830075059" width="395.52"><g transform="matrix(1,0,0,1,137.8859937519824,12.068043386003069)"><svg viewBox="0 0 395.52 98.99953557016445" height="98.99953557016445" width="395.52"><g id="textblocktransform"><svg viewBox="0 0 395.52 98.99953557016445" height="98.99953557016445" width="395.52" id="textblock"><g><svg viewBox="0 0 395.52 62.48145262462858" height="62.48145262462858" width="395.52"><g transform="matrix(1,0,0,1,0,0)"><svg width="395.52" viewBox="5.25 -37.85 305.23 47.85" height="62.48145262462858" data-palette-color="#dee0e4"><g class="wordmark-text-0" data-fill-palette-color="primary" id="text-0"><path d="M18.9-35Q25.7-35 29.6-31.75 33.5-28.5 33.5-22.8L33.5-22.8Q33.5-17.1 29.6-13.85 25.7-10.6 18.9-10.6L18.9-10.6 10.25-10.6 10.25 0 5.25 0 5.25-35 18.9-35ZM18.75-14.95Q23.5-14.95 26-16.98 28.5-19 28.5-22.8L28.5-22.8Q28.5-26.6 26-28.63 23.5-30.65 18.75-30.65L18.75-30.65 10.25-30.65 10.25-14.95 18.75-14.95ZM45.25-22.05Q46.5-24.35 48.95-25.55 51.4-26.75 54.9-26.75L54.9-26.75 54.9-22.1Q54.5-22.15 53.8-22.15L53.8-22.15Q49.9-22.15 47.67-19.83 45.45-17.5 45.45-13.2L45.45-13.2 45.45 0 40.65 0 40.65-26.5 45.25-26.5 45.25-22.05ZM72.5 0.3Q68.55 0.3 65.4-1.45 62.25-3.2 60.47-6.28 58.7-9.35 58.7-13.25L58.7-13.25Q58.7-17.15 60.47-20.23 62.25-23.3 65.4-25.03 68.55-26.75 72.5-26.75L72.5-26.75Q76.45-26.75 79.57-25.03 82.7-23.3 84.47-20.23 86.25-17.15 86.25-13.25L86.25-13.25Q86.25-9.35 84.47-6.28 82.7-3.2 79.57-1.45 76.45 0.3 72.5 0.3L72.5 0.3ZM72.5-3.9Q75.05-3.9 77.07-5.08 79.09-6.25 80.25-8.38 81.4-10.5 81.4-13.25L81.4-13.25Q81.4-16 80.25-18.13 79.09-20.25 77.07-21.4 75.05-22.55 72.5-22.55L72.5-22.55Q69.95-22.55 67.92-21.4 65.9-20.25 64.72-18.13 63.55-16 63.55-13.25L63.55-13.25Q63.55-10.5 64.72-8.38 65.9-6.25 67.92-5.08 69.95-3.9 72.5-3.9L72.5-3.9ZM89.49 10Q87.74 10 86.24 9.6 84.74 9.2 83.74 8.4L83.74 8.4 85.29 4.7Q86.79 5.95 89.19 5.95L89.19 5.95Q91.09 5.95 92.12 4.78 93.14 3.6 93.14 1.3L93.14 1.3 93.14-26.5 97.94-26.5 97.94 1.2Q97.94 5.3 95.74 7.65 93.54 10 89.49 10L89.49 10ZM95.54-31.6Q94.14-31.6 93.22-32.5 92.29-33.4 92.29-34.7L92.29-34.7Q92.29-36 93.22-36.93 94.14-37.85 95.54-37.85L95.54-37.85Q96.94-37.85 97.87-36.98 98.79-36.1 98.79-34.8L98.79-34.8Q98.79-33.45 97.87-32.52 96.94-31.6 95.54-31.6L95.54-31.6ZM119.04-3.9Q123.79-3.9 126.69-7.1L126.69-7.1 129.29-4Q127.54-1.9 124.87-0.8 122.19 0.3 118.89 0.3L118.89 0.3Q114.69 0.3 111.44-1.43 108.19-3.15 106.42-6.25 104.64-9.35 104.64-13.25L104.64-13.25Q104.64-17.1 106.37-20.2 108.09-23.3 111.12-25.03 114.14-26.75 117.94-26.75L117.94-26.75Q121.54-26.75 124.49-25.13 127.44-23.5 129.19-20.55 130.94-17.6 130.99-13.75L130.99-13.75 109.94-9.65Q110.94-6.9 113.32-5.4 115.69-3.9 119.04-3.9L119.04-3.9ZM117.94-22.7Q115.44-22.7 113.47-21.55 111.49-20.4 110.39-18.32 109.29-16.25 109.29-13.5L109.29-13.5 109.29-13 126.24-16.2Q125.59-19.1 123.34-20.9 121.09-22.7 117.94-22.7L117.94-22.7ZM149.24 0.3Q145.19 0.3 142.01-1.45 138.84-3.2 137.04-6.28 135.24-9.35 135.24-13.25L135.24-13.25Q135.24-17.15 137.04-20.23 138.84-23.3 142.01-25.03 145.19-26.75 149.24-26.75L149.24-26.75Q152.84-26.75 155.66-25.3 158.49-23.85 160.04-21.1L160.04-21.1 156.39-18.75Q155.14-20.65 153.29-21.6 151.44-22.55 149.19-22.55L149.19-22.55Q146.59-22.55 144.51-21.4 142.44-20.25 141.26-18.13 140.09-16 140.09-13.25L140.09-13.25Q140.09-10.45 141.26-8.33 142.44-6.2 144.51-5.05 146.59-3.9 149.19-3.9L149.19-3.9Q151.44-3.9 153.29-4.85 155.14-5.8 156.39-7.7L156.39-7.7 160.04-5.4Q158.49-2.65 155.66-1.18 152.84 0.3 149.24 0.3L149.24 0.3ZM178.69-5L180.19-1.55Q179.14-0.65 177.59-0.18 176.04 0.3 174.39 0.3L174.39 0.3Q170.39 0.3 168.19-1.85 165.99-4 165.99-8L165.99-8 165.99-32.3 170.79-32.3 170.79-26.5 178.39-26.5 178.39-22.55 170.79-22.55 170.79-8.2Q170.79-6.05 171.86-4.9 172.94-3.75 174.94-3.75L174.94-3.75Q177.14-3.75 178.69-5L178.69-5Z" fill="#dee0e4" data-fill-palette-color="primary"></path><path d="M214.54 0.4Q209.29 0.4 205.06-1.93 200.84-4.25 198.44-8.33 196.04-12.4 196.04-17.5L196.04-17.5Q196.04-22.6 198.44-26.68 200.84-30.75 205.09-33.08 209.34-35.4 214.59-35.4L214.59-35.4Q218.69-35.4 222.09-34.02 225.49-32.65 227.89-29.95L227.89-29.95 224.64-26.8Q220.69-30.95 214.79-30.95L214.79-30.95Q210.89-30.95 207.74-29.2 204.59-27.45 202.81-24.38 201.04-21.3 201.04-17.5L201.04-17.5Q201.04-13.7 202.81-10.63 204.59-7.55 207.74-5.8 210.89-4.05 214.79-4.05L214.79-4.05Q220.64-4.05 224.64-8.25L224.64-8.25 227.89-5.1Q225.49-2.4 222.06-1 218.64 0.4 214.54 0.4L214.54 0.4ZM245.69 0.3Q241.74 0.3 238.58-1.45 235.43-3.2 233.66-6.28 231.89-9.35 231.89-13.25L231.89-13.25Q231.89-17.15 233.66-20.23 235.43-23.3 238.58-25.03 241.74-26.75 245.69-26.75L245.69-26.75Q249.63-26.75 252.76-25.03 255.88-23.3 257.66-20.23 259.44-17.15 259.44-13.25L259.44-13.25Q259.44-9.35 257.66-6.28 255.88-3.2 252.76-1.45 249.63 0.3 245.69 0.3L245.69 0.3ZM245.69-3.9Q248.24-3.9 250.26-5.08 252.28-6.25 253.44-8.38 254.58-10.5 254.58-13.25L254.58-13.25Q254.58-16 253.44-18.13 252.28-20.25 250.26-21.4 248.24-22.55 245.69-22.55L245.69-22.55Q243.14-22.55 241.11-21.4 239.08-20.25 237.91-18.13 236.74-16 236.74-13.25L236.74-13.25Q236.74-10.5 237.91-8.38 239.08-6.25 241.11-5.08 243.14-3.9 245.69-3.9L245.69-3.9ZM270.68-22.05Q271.93-24.35 274.38-25.55 276.83-26.75 280.33-26.75L280.33-26.75 280.33-22.1Q279.93-22.15 279.23-22.15L279.23-22.15Q275.33-22.15 273.11-19.83 270.88-17.5 270.88-13.2L270.88-13.2 270.88 0 266.08 0 266.08-26.5 270.68-26.5 270.68-22.05ZM298.53-3.9Q303.28-3.9 306.18-7.1L306.18-7.1 308.78-4Q307.03-1.9 304.36-0.8 301.68 0.3 298.38 0.3L298.38 0.3Q294.18 0.3 290.93-1.43 287.68-3.15 285.91-6.25 284.13-9.35 284.13-13.25L284.13-13.25Q284.13-17.1 285.86-20.2 287.58-23.3 290.61-25.03 293.63-26.75 297.43-26.75L297.43-26.75Q301.03-26.75 303.98-25.13 306.93-23.5 308.68-20.55 310.43-17.6 310.48-13.75L310.48-13.75 289.43-9.65Q290.43-6.9 292.81-5.4 295.18-3.9 298.53-3.9L298.53-3.9ZM297.43-22.7Q294.93-22.7 292.96-21.55 290.98-20.4 289.88-18.32 288.78-16.25 288.78-13.5L288.78-13.5 288.78-13 305.73-16.2Q305.08-19.1 302.83-20.9 300.58-22.7 297.43-22.7L297.43-22.7Z" fill="#e3781a" data-fill-palette-color="accent"></path></g></svg></g></svg></g><g transform="matrix(1,0,0,1,0,77.2318240344404)"><svg viewBox="0 0 232.96128 21.76771153572406" height="21.76771153572406" width="232.96128"><g transform="matrix(1,0,0,1,0,0)"><svg width="232.96128" viewBox="4.91 -37.99 535.0500000000001 50.00000000000001" height="21.76771153572406" data-palette-color="#dee0e4"><path d="M9.06 0L4.91 0 4.91-35.69 9.06-35.69 9.06 0ZM30.88-26.76L40.13-26.76 40.13-24.19 35.18-23.61Q35.86-22.75 36.4-21.37 36.94-20 36.94-18.26L36.94-18.26Q36.94-14.33 34.25-11.99 31.56-9.64 26.88-9.64L26.88-9.64Q25.68-9.64 24.63-9.84L24.63-9.84Q22.04-8.47 22.04-6.4L22.04-6.4Q22.04-5.3 22.95-4.77 23.85-4.25 26.05-4.25L26.05-4.25 30.78-4.25Q35.13-4.25 37.46-2.42 39.79-0.59 39.79 2.91L39.79 2.91Q39.79 7.35 36.23 9.68 32.66 12.01 25.83 12.01L25.83 12.01Q20.58 12.01 17.73 10.06 14.89 8.11 14.89 4.54L14.89 4.54Q14.89 2.1 16.45 0.32 18.02-1.46 20.85-2.1L20.85-2.1Q19.82-2.56 19.13-3.54 18.43-4.52 18.43-5.81L18.43-5.81Q18.43-7.28 19.21-8.37 19.99-9.47 21.68-10.5L21.68-10.5Q19.6-11.35 18.3-13.4 16.99-15.45 16.99-18.09L16.99-18.09Q16.99-22.49 19.63-24.87 22.26-27.25 27.1-27.25L27.1-27.25Q29.2-27.25 30.88-26.76L30.88-26.76ZM18.8 4.49L18.8 4.49Q18.8 6.67 20.63 7.79 22.46 8.91 25.88 8.91L25.88 8.91Q30.98 8.91 33.43 7.39 35.89 5.86 35.89 3.25L35.89 3.25Q35.89 1.07 34.54 0.23 33.2-0.61 29.49-0.61L29.49-0.61 24.63-0.61Q21.87-0.61 20.33 0.71 18.8 2.03 18.8 4.49ZM20.99-18.19L20.99-18.19Q20.99-15.38 22.58-13.94 24.17-12.5 27-12.5L27-12.5Q32.93-12.5 32.93-18.26L32.93-18.26Q32.93-24.29 26.93-24.29L26.93-24.29Q24.07-24.29 22.53-22.75 20.99-21.22 20.99-18.19ZM67.99 0L63.94 0 63.94-17.31Q63.94-20.58 62.45-22.19 60.96-23.8 57.78-23.8L57.78-23.8Q53.58-23.8 51.63-21.53 49.68-19.26 49.68-14.04L49.68-14.04 49.68 0 45.62 0 45.62-26.76 48.92-26.76 49.58-23.1 49.78-23.1Q51.02-25.07 53.27-26.16 55.51-27.25 58.27-27.25L58.27-27.25Q63.11-27.25 65.55-24.91 67.99-22.58 67.99-17.46L67.99-17.46 67.99 0ZM80.36-26.76L80.36 0 76.31 0 76.31-26.76 80.36-26.76ZM75.97-34.01L75.97-34.01Q75.97-35.4 76.65-36.05 77.34-36.69 78.36-36.69L78.36-36.69Q79.34-36.69 80.05-36.04 80.75-35.38 80.75-34.01L80.75-34.01Q80.75-32.64 80.05-31.97 79.34-31.3 78.36-31.3L78.36-31.3Q77.34-31.3 76.65-31.97 75.97-32.64 75.97-34.01ZM97.6-2.86L97.6-2.86Q98.67-2.86 99.67-3.02 100.67-3.17 101.26-3.34L101.26-3.34 101.26-0.24Q100.6 0.07 99.32 0.28 98.04 0.49 97.01 0.49L97.01 0.49Q89.25 0.49 89.25-7.69L89.25-7.69 89.25-23.61 85.41-23.61 85.41-25.56 89.25-27.25 90.96-32.96 93.3-32.96 93.3-26.76 101.06-26.76 101.06-23.61 93.3-23.61 93.3-7.86Q93.3-5.44 94.45-4.15 95.6-2.86 97.6-2.86ZM117.91 0.49L117.91 0.49Q111.97 0.49 108.54-3.13 105.11-6.74 105.11-13.16L105.11-13.16Q105.11-19.63 108.3-23.44 111.49-27.25 116.86-27.25L116.86-27.25Q121.89-27.25 124.82-23.94 127.75-20.63 127.75-15.21L127.75-15.21 127.75-12.65 109.31-12.65Q109.44-7.93 111.69-5.49 113.95-3.05 118.05-3.05L118.05-3.05Q122.38-3.05 126.6-4.86L126.6-4.86 126.6-1.25Q124.45-0.32 122.53 0.09 120.62 0.49 117.91 0.49ZM116.81-23.85L116.81-23.85Q113.59-23.85 111.67-21.75 109.75-19.65 109.41-15.94L109.41-15.94 123.4-15.94Q123.4-19.78 121.69-21.81 119.98-23.85 116.81-23.85ZM154.18 0.15L143.39-26.76 147.74-26.76 153.6-11.5Q155.52-6.27 155.99-3.96L155.99-3.96 156.18-3.96Q156.5-5.2 157.51-8.22 158.53-11.23 164.14-26.76L164.14-26.76 168.49-26.76 156.99 3.71Q155.28 8.23 153 10.12 150.71 12.01 147.39 12.01L147.39 12.01Q145.54 12.01 143.73 11.6L143.73 11.6 143.73 8.35Q145.08 8.64 146.74 8.64L146.74 8.64Q150.91 8.64 152.69 3.96L152.69 3.96 154.18 0.15ZM195.93-13.4L195.93-13.4Q195.93-6.86 192.63-3.19 189.34 0.49 183.52 0.49L183.52 0.49Q179.94 0.49 177.15-1.2 174.37-2.88 172.86-6.03 171.34-9.18 171.34-13.4L171.34-13.4Q171.34-19.95 174.61-23.6 177.89-27.25 183.7-27.25L183.7-27.25Q189.31-27.25 192.62-23.51 195.93-19.78 195.93-13.4ZM175.54-13.4L175.54-13.4Q175.54-8.28 177.59-5.59 179.64-2.91 183.62-2.91L183.62-2.91Q187.6-2.91 189.67-5.58 191.73-8.25 191.73-13.4L191.73-13.4Q191.73-18.51 189.67-21.15 187.6-23.8 183.57-23.8L183.57-23.8Q179.59-23.8 177.57-21.19 175.54-18.58 175.54-13.4ZM202.74-26.76L206.84-26.76 206.84-9.4Q206.84-6.13 208.33-4.52 209.82-2.91 212.99-2.91L212.99-2.91Q217.19-2.91 219.13-5.2 221.07-7.5 221.07-12.7L221.07-12.7 221.07-26.76 225.12-26.76 225.12 0 221.78 0 221.19-3.59 220.97-3.59Q219.73-1.61 217.52-0.56 215.31 0.49 212.48 0.49L212.48 0.49Q207.59 0.49 205.17-1.83 202.74-4.15 202.74-9.25L202.74-9.25 202.74-26.76ZM245.92-27.25L245.92-27.25Q247.7-27.25 249.12-26.95L249.12-26.95 248.56-23.19Q246.9-23.56 245.63-23.56L245.63-23.56Q242.38-23.56 240.08-20.92 237.77-18.29 237.77-14.36L237.77-14.36 237.77 0 233.72 0 233.72-26.76 237.06-26.76 237.52-21.8 237.72-21.8Q239.21-24.41 241.31-25.83 243.41-27.25 245.92-27.25ZM279.56 0.49L279.56 0.49Q276.95 0.49 274.79-0.48 272.63-1.44 271.16-3.44L271.16-3.44 270.87-3.44Q271.16-1.1 271.16 1L271.16 1 271.16 12.01 267.11 12.01 267.11-26.76 270.4-26.76 270.97-23.1 271.16-23.1Q272.72-25.29 274.8-26.27 276.87-27.25 279.56-27.25L279.56-27.25Q284.88-27.25 287.78-23.61 290.67-19.97 290.67-13.4L290.67-13.4Q290.67-6.81 287.73-3.16 284.78 0.49 279.56 0.49ZM278.97-23.8L278.97-23.8Q274.87-23.8 273.04-21.53 271.21-19.26 271.16-14.31L271.16-14.31 271.16-13.4Q271.16-7.76 273.04-5.33 274.92-2.91 279.07-2.91L279.07-2.91Q282.54-2.91 284.5-5.71 286.47-8.52 286.47-13.45L286.47-13.45Q286.47-18.46 284.5-21.13 282.54-23.8 278.97-23.8ZM309.95-27.25L309.95-27.25Q311.74-27.25 313.15-26.95L313.15-26.95 312.59-23.19Q310.93-23.56 309.66-23.56L309.66-23.56Q306.41-23.56 304.11-20.92 301.8-18.29 301.8-14.36L301.8-14.36 301.8 0 297.75 0 297.75-26.76 301.09-26.76 301.55-21.8 301.75-21.8Q303.24-24.41 305.34-25.83 307.44-27.25 309.95-27.25ZM341.25-13.4L341.25-13.4Q341.25-6.86 337.95-3.19 334.66 0.49 328.85 0.49L328.85 0.49Q325.26 0.49 322.47-1.2 319.69-2.88 318.18-6.03 316.66-9.18 316.66-13.4L316.66-13.4Q316.66-19.95 319.94-23.6 323.21-27.25 329.02-27.25L329.02-27.25Q334.63-27.25 337.94-23.51 341.25-19.78 341.25-13.4ZM320.86-13.4L320.86-13.4Q320.86-8.28 322.91-5.59 324.97-2.91 328.94-2.91L328.94-2.91Q332.92-2.91 334.99-5.58 337.05-8.25 337.05-13.4L337.05-13.4Q337.05-18.51 334.99-21.15 332.92-23.8 328.9-23.8L328.9-23.8Q324.92-23.8 322.89-21.19 320.86-18.58 320.86-13.4ZM367.1 0L366.56-3.59 366.34-3.59Q363.54 0.49 357.95 0.49L357.95 0.49Q352.7 0.49 349.78-3.1 346.86-6.69 346.86-13.31L346.86-13.31Q346.86-19.92 349.79-23.58 352.72-27.25 357.95-27.25L357.95-27.25Q363.39-27.25 366.3-23.29L366.3-23.29 366.61-23.29 366.44-25.22 366.34-27.1 366.34-37.99 370.4-37.99 370.4 0 367.1 0ZM358.46-2.91L358.46-2.91Q362.61-2.91 364.48-5.16 366.34-7.42 366.34-12.45L366.34-12.45 366.34-13.31Q366.34-18.99 364.45-21.42 362.56-23.85 358.41-23.85L358.41-23.85Q354.85-23.85 352.95-21.08 351.06-18.31 351.06-13.26L351.06-13.26Q351.06-8.13 352.94-5.52 354.82-2.91 358.46-2.91ZM378.7-26.76L382.8-26.76 382.8-9.4Q382.8-6.13 384.29-4.52 385.78-2.91 388.95-2.91L388.95-2.91Q393.15-2.91 395.09-5.2 397.03-7.5 397.03-12.7L397.03-12.7 397.03-26.76 401.08-26.76 401.08 0 397.74 0 397.15-3.59 396.93-3.59Q395.69-1.61 393.48-0.56 391.27 0.49 388.44 0.49L388.44 0.49Q383.55 0.49 381.12-1.83 378.7-4.15 378.7-9.25L378.7-9.25 378.7-26.76ZM420.37 0.49L420.37 0.49Q414.56 0.49 411.37-3.09 408.19-6.67 408.19-13.21L408.19-13.21Q408.19-19.92 411.42-23.58 414.65-27.25 420.64-27.25L420.64-27.25Q422.56-27.25 424.49-26.83 426.42-26.42 427.52-25.85L427.52-25.85 426.28-22.41Q424.93-22.95 423.35-23.3 421.76-23.66 420.54-23.66L420.54-23.66Q412.38-23.66 412.38-13.26L412.38-13.26Q412.38-8.33 414.37-5.69 416.36-3.05 420.27-3.05L420.27-3.05Q423.61-3.05 427.13-4.49L427.13-4.49 427.13-0.9Q424.44 0.49 420.37 0.49ZM442.12-2.86L442.12-2.86Q443.19-2.86 444.19-3.02 445.19-3.17 445.78-3.34L445.78-3.34 445.78-0.24Q445.12 0.07 443.84 0.28 442.56 0.49 441.53 0.49L441.53 0.49Q433.77 0.49 433.77-7.69L433.77-7.69 433.77-23.61 429.94-23.61 429.94-25.56 433.77-27.25 435.48-32.96 437.82-32.96 437.82-26.76 445.58-26.76 445.58-23.61 437.82-23.61 437.82-7.86Q437.82-5.44 438.97-4.15 440.12-2.86 442.12-2.86ZM455.18-26.76L455.18 0 451.12 0 451.12-26.76 455.18-26.76ZM450.78-34.01L450.78-34.01Q450.78-35.4 451.47-36.05 452.15-36.69 453.18-36.69L453.18-36.69Q454.15-36.69 454.86-36.04 455.57-35.38 455.57-34.01L455.57-34.01Q455.57-32.64 454.86-31.97 454.15-31.3 453.18-31.3L453.18-31.3Q452.15-31.3 451.47-31.97 450.78-32.64 450.78-34.01ZM474.36 0L469.63 0 459.47-26.76 463.82-26.76 469.58-10.89Q471.53-5.32 471.87-3.66L471.87-3.66 472.07-3.66Q472.34-4.96 473.77-9.02 475.19-13.09 480.17-26.76L480.17-26.76 484.52-26.76 474.36 0ZM492.87-26.76L492.87 0 488.81 0 488.81-26.76 492.87-26.76ZM488.47-34.01L488.47-34.01Q488.47-35.4 489.16-36.05 489.84-36.69 490.87-36.69L490.87-36.69Q491.84-36.69 492.55-36.04 493.26-35.38 493.26-34.01L493.26-34.01Q493.26-32.64 492.55-31.97 491.84-31.3 490.87-31.3L490.87-31.3Q489.84-31.3 489.16-31.97 488.47-32.64 488.47-34.01ZM510.1-2.86L510.1-2.86Q511.18-2.86 512.18-3.02 513.18-3.17 513.76-3.34L513.76-3.34 513.76-0.24Q513.1 0.07 511.82 0.28 510.54 0.49 509.52 0.49L509.52 0.49Q501.75 0.49 501.75-7.69L501.75-7.69 501.75-23.61 497.92-23.61 497.92-25.56 501.75-27.25 503.46-32.96 505.8-32.96 505.8-26.76 513.57-26.76 513.57-23.61 505.8-23.61 505.8-7.86Q505.8-5.44 506.95-4.15 508.1-2.86 510.1-2.86ZM525.65 0.15L514.86-26.76 519.21-26.76 525.06-11.5Q526.99-6.27 527.46-3.96L527.46-3.96 527.65-3.96Q527.97-5.2 528.98-8.22 530-11.23 535.61-26.76L535.61-26.76 539.96-26.76 528.46 3.71Q526.75 8.23 524.47 10.12 522.18 12.01 518.86 12.01L518.86 12.01Q517.01 12.01 515.2 11.6L515.2 11.6 515.2 8.35Q516.54 8.64 518.2 8.64L518.2 8.64Q522.38 8.64 524.16 3.96L524.16 3.96 525.65 0.15Z" opacity="1" transform="matrix(1,0,0,1,0,0)" fill="#dee0e4" class="slogan-text-1" data-fill-palette-color="secondary" id="text-1"></path></svg></g></svg></g></svg></g></svg></g><g><svg viewBox="0 0 123.13562234217059 123.13562234217059" height="123.13562234217059" width="123.13562234217059"><g><svg xmlns="http://www.w3.org/2000/svg" xmlns:xlink="http://www.w3.org/1999/xlink" version="1.1" x="0" y="0" viewBox="5 5 90 90" style="enable-background:new 0 0 100 100;" xml:space="preserve" height="123.13562234217059" width="123.13562234217059" class="icon-icon-0" data-fill-palette-color="accent" id="icon-0"><path d="M50 5C25.1 5 5 25.1 5 50c0 24.9 20.1 45 45 45 24.9 0 45-20.1 45-45C95 25.1 74.9 5 50 5zM49.2 80c-11.3 0-21.4-9.2-20.4-20.5C30 46.3 37 37.6 36.9 37.7c-2 13.5 3.5 20.1 9.5 17.7 3.3-1.3 2.3-10.9 2.7-16.4C50.4 22.8 61.5 20 61.4 20c-5 9.2-4.8 18.3 1.4 24.3 4 3.9 6.8 9.2 6.8 15.2C69.6 70.8 60.5 80 49.2 80z" fill="#e3781a" data-fill-palette-color="accent"></path></svg></g></svg></g></svg></g><defs></defs></svg><rect width="395.52" height="91.30493830075059" fill="none" stroke="none" visibility="hidden"></rect></g></svg></g></svg>